<svg xmlns="http://www.w3.org/2000/svg" viewBox="0 0 448 512"><!--! Font Awesome Free 6.4.2 by @fontawesome - https://fontawesome.com License - https://fontawesome.com/license (Free Name: icon-safe-solid) --><path d="M384 32H64C28.65 32 0 60.65 0 96v320c0 35.35 28.65 64 64 64h320c35.35 0 64-28.65 64-64V96C448 60.65 419.4 32 384 32zM320 320c-35.35 0-64-28.65-64-64s28.65-64 64-64s64 28.65 64 64S355.4 320 320 320zM320 224c-17.67 0-32 14.33-32 32s14.33 32 32 32s32-14.33 32-32S337.7 224 320 224zM128 352h-32v-192h32V352zM192 352h-32v-192h32V352z"/></svg>